<?xml version="1.0" encoding="UTF-8" standalone="no"?>
<!DOCTYPE svg PUBLIC "-//W3C//DTD SVG 1.1//EN" "http://www.w3.org/Graphics/SVG/1.1/DTD/svg11.dtd">
<svg width="100%" height="100%" viewBox="0 0 546 558" version="1.1" xmlns="http://www.w3.org/2000/svg" xmlns:xlink="http://www.w3.org/1999/xlink" xml:space="preserve" xmlns:serif="http://www.serif.com/" style="fill-rule:evenodd;clip-rule:evenodd;stroke-linejoin:round;stroke-miterlimit:2;">
    <g transform="matrix(1,0,0,1,-118.197,-22.1552)">
        <g>
            <g>
                <g id="path3" transform="matrix(1,0,0,1,118.197,22.1552)">
                    <path d="M335.75,309L336,309C338.5,368.17 339.67,400.92 339.5,407.25C338.83,429.75 334.33,448.67 326,464C325.33,465 324.83,465.5 324.5,465.5C324,465.5 323.75,464.42 323.75,462.25C323.92,460.58 324.17,458.33 324.5,455.5C325.33,448.83 325.92,441.17 326.25,432.5C326.42,424.67 325.17,386.75 322.5,318.75C322.33,315.42 322.25,312.08 322.25,308.75C319.25,221.58 317.83,174.92 318,168.75C318.17,160.92 317.17,154.33 315,149C315.17,145.67 317.67,138.92 322.5,128.75C323,127.58 323.5,127 324,127C324.67,127 325.25,127.67 325.75,129C326.92,131.83 329.67,139.67 334,152.5C340,169.83 343,179.75 343,182.25C342.83,183.42 342.42,184 341.75,184C340.25,183.83 337.17,180.92 332.5,175.25C332.17,174.92 331.92,174.75 331.75,174.75C331.42,174.75 331.25,175.42 331.25,176.75C331.25,177.58 332.83,221.67 336,309L335.75,309Z" style="fill:rgb(255,97,6);"/>
                </g>
                <g id="path5" transform="matrix(1,0,0,1,118.197,22.1552)">
                    <path d="M26.75,167.5C26.75,167.33 27.25,166.67 28.25,165.5C33.08,160.17 35.5,156.58 35.5,154.75C35.5,153.08 34.75,152.25 33.25,152.25C32.42,152.25 31.67,152.46 31,152.88C30.33,153.29 29.92,153.5 29.75,153.5L29.5,153.5L29.75,152C30.58,148.33 32.42,146.5 35.25,146.5C37.75,146.5 39,148 39,151C39,153.33 38.04,155.92 36.13,158.75C34.21,161.58 31.75,164.08 28.75,166.25C27.58,167.08 26.92,167.5 26.75,167.5Z" style="fill:rgb(0,162,181);"/>
                </g>
                <g id="path6" transform="matrix(1,0,0,1,118.197,22.1552)">
                    <path d="M50,450.75C50,450.58 50.5,449.92 51.5,448.75C56.33,443.42 58.75,439.83 58.75,438C58.75,436.33 58,435.5 56.5,435.5C55.67,435.5 54.92,435.71 54.25,436.13C53.58,436.54 53.17,436.75 53,436.75L52.75,436.75L53,435.25C53.83,431.58 55.67,429.75 58.5,429.75C61,429.75 62.25,431.25 62.25,434.25C62.25,436.58 61.29,439.17 59.38,442C57.46,444.83 55,447.33 52,449.5C50.83,450.33 50.17,450.75 50,450.75Z" style="fill:rgb(0,162,181);"/>
                </g>
                <g id="path7" transform="matrix(1,0,0,1,121.197,21.1552)">
                    <path d="M452,313.5C452,313.33 452.58,312.58 453.75,311.25C459.42,305.08 462.25,301 462.25,299C462.25,297 461.33,296 459.5,296C458.5,296 457.5,296.33 456.5,297L455.5,297.5L455.25,297.25L455.5,295.75C456.33,291.42 458.42,289.25 461.75,289.25C464.58,289.25 466,291 466,294.5C466,297.17 464.92,300.17 462.75,303.5C460.58,306.83 457.83,309.67 454.5,312C453,313 452.17,313.5 452,313.5Z" style="fill:rgb(0,162,181);"/>
                </g>
                <g id="path8" transform="matrix(1,0,0,1,118.197,22.1552)">
                    <path d="M319,112.25C319,111.75 319.83,110.33 321.5,108C329.5,96.5 333.5,88.83 333.5,85L333.5,84.25C333,81.25 331.58,79.75 329.25,79.75C326.75,79.75 324.83,80.42 323.5,81.75L321.5,83.25C321.5,83.08 321.25,83 320.75,83C320.92,82.5 321,81.5 321,80C321.67,72.33 324.92,68.08 330.75,67.25L332.25,67.25C336.25,67.25 338.58,70 339.25,75.5L339.5,78C339.5,82 338.25,86.58 335.75,91.75C332.75,98.25 328.5,104.08 323,109.25C320.83,111.25 319.5,112.25 319,112.25Z" style="fill:rgb(0,162,181);"/>
                </g>
                <g id="path9" transform="matrix(1,0,0,1,118.197,22.1552)">
                    <path d="M89.5,332.25C89,332.25 88.75,331.58 88.75,330.25C88.75,327.92 87.42,323.46 84.75,316.88C82.08,310.29 80.25,307 79.25,307C78.42,307 77.92,307.25 77.75,307.75C77.58,308.25 77,308.5 76,308.5C74.67,308.5 73.08,307.63 71.25,305.88C69.42,304.13 68.5,302.75 68.5,301.75C68.5,301.25 69.29,299.67 70.88,297C72.46,294.33 73.42,293 73.75,293C77.58,293 81.04,295.29 84.13,299.88C87.21,304.46 89.42,310.5 90.75,318L90.75,319.25L91,319.25C91.17,319.25 91.25,319.17 91.25,319C91.25,318.83 91.42,318.5 91.75,318C92.25,313.5 93.75,306.92 96.25,298.25C98.92,291.92 101.75,288.75 104.75,288.75C106.42,288.75 107.96,289.75 109.38,291.75C110.79,293.75 111.5,295.33 111.5,296.5C111.5,297.33 111.25,298.63 110.75,300.38C110.25,302.13 109.58,303 108.75,303C108.42,303 107.67,302.25 106.5,300.75C105.33,299.25 104.08,298.5 102.75,298.5C100.08,298.5 97.58,305 95.25,318C94.25,323.67 93.08,327.67 91.75,330C90.92,331.5 90.17,332.25 89.5,332.25Z" style="fill:rgb(0,162,181);"/>
                </g>
                <g id="path10" transform="matrix(1,0,0,1,118.197,22.1552)">
                    <path d="M66.5,234C65.83,234 65.5,233.25 65.5,231.75C65.5,229.42 64.21,224.96 61.63,218.38C59.04,211.79 57.25,208.5 56.25,208.5C55.42,208.5 54.88,208.75 54.63,209.25C54.38,209.75 53.75,210 52.75,210C51.58,210 50.08,209.13 48.25,207.38C46.42,205.63 45.5,204.25 45.5,203.25C45.5,202.75 46.29,201.21 47.88,198.63C49.46,196.04 50.42,194.75 50.75,194.75C54.58,194.75 58.04,197 61.13,201.5C64.21,206 66.33,212 67.5,219.5L67.75,220L67.75,220.75L68,220.75C68.17,220.75 68.29,220.63 68.38,220.38C68.46,220.13 68.58,219.83 68.75,219.5C69.25,215 70.75,208.42 73.25,199.75C75.75,193.42 78.58,190.25 81.75,190.25C83.42,190.25 84.96,191.25 86.38,193.25C87.79,195.25 88.5,196.83 88.5,198C88.5,199 88.25,200.17 87.75,201.5C87.25,203.5 86.58,204.5 85.75,204.5C85.42,204.5 84.67,203.75 83.5,202.25C82.33,200.75 81.08,200 79.75,200C77.08,200 74.58,206.5 72.25,219.5C70.25,229.17 68.33,234 66.5,234Z" style="fill:rgb(0,162,181);"/>
                </g>
                <g id="path11" transform="matrix(1,0,0,1,118.197,22.1552)">
                    <path d="M277.5,265.5C299.33,276.67 319.83,280.58 339,277.25C347.83,277.25 356.42,274 364.75,267.5C367.08,265.67 368.25,258.5 368.25,246C368.25,238 366.17,207.25 362,153.75C358.33,99.75 356.5,68.08 356.5,58.75C356.5,49.92 355.08,42.75 352.25,37.25C352.25,33.92 354.83,26.17 360,14C360.33,12.67 360.75,12 361.25,12C361.75,12 362.5,12.92 363.5,14.75C364.83,17.58 368.08,26 373.25,40C373.58,40.83 373.75,41.5 373.75,42C378.92,55.5 382,63.92 383,67.25C383.83,70.08 384.25,71.92 384.25,72.75C384.25,76.42 380.33,74.08 372.5,65.75C371.5,64.42 371,64.92 371,67.25C371,67.75 372.92,91.67 376.75,139C379.92,186.17 381.5,214.33 381.5,223.5C381.5,250.17 376.83,270.92 367.5,285.75C358.67,297.92 349.17,304.17 339,304.5C309.17,306.5 284,300.17 263.5,285.5L230,261.25C228.67,259.92 227.08,258.5 225.25,257C223.25,256.17 222.08,255.75 221.75,255.75C221.25,255.75 221.67,256.92 223,259.25C228.17,268.92 230.75,275.92 230.75,280.25C230.75,295.58 225.42,307.17 214.75,315C206.25,320.67 188.08,328.33 160.25,338L155.25,340.25C141.25,346.25 132,351.33 127.5,355.5C117.67,362.5 103.92,376.5 86.25,397.5C75.58,409.5 64.83,415.5 54,415.5C45.17,415.5 37.5,411.58 31,403.75C23.5,394.92 19.75,384.42 19.75,372.25C19.75,355.58 26.75,333.75 40.75,306.75C42.25,303.92 43.42,302.5 44.25,302.5C44.75,302.5 45,303 45,304C45,306.33 42,315.58 36,331.75C29.83,348.08 26.75,360.92 26.75,370.25C26.75,377.25 28.42,382.83 31.75,387C35.42,391.67 40.33,394 46.5,394C57.67,394 69,388.42 80.5,377.25L91.75,364C95.08,359.83 98.58,355.67 102.25,351.5C112.08,340.67 124.67,331.08 140,322.75C148.83,318.08 164.42,311.83 186.75,304C202.08,298.33 212.75,293.67 218.75,290C221.58,288.5 222.58,286.42 221.75,283.75C216.58,268.75 196.08,249.42 160.25,225.75L69.5,166.25C65.33,163.92 61.08,161.42 56.75,158.75C55.92,157.75 55.5,154.67 55.5,149.5C55.5,143 56.42,136.08 58.25,128.75C60.08,120.75 62.42,115.83 65.25,114C84.25,100 125.42,81.33 188.75,58C253.08,34.33 295.5,22.5 316,22.5C322,22.5 326.17,23.42 328.5,25.25C330.83,27.58 332,31.08 332,35.75C332,46.42 324.08,59.92 308.25,76.25L298.5,84.75C295.67,87.08 292.83,89.58 290,92.25C280.33,101.58 273.83,109.08 270.5,114.75C268.17,118.42 266.58,120.25 265.75,120.25C265.25,120.25 265.67,117.67 267,112.5C267.5,109.83 270.08,105 274.75,98C278.92,91.5 282.17,87.25 284.5,85.25C302.67,69.08 313.58,58.42 317.25,53.25L317.25,51.25C317.25,48.42 312.17,47 302,47C286.17,47 248,58.17 187.5,80.5C127,103.33 85.58,121.92 63.25,136.25C61.75,137.25 61.92,138.17 63.75,139C83.42,148.83 103,158.92 122.5,169.25C168.67,194.25 209.42,218.92 244.75,243.25C255.42,250.58 266.33,258 277.5,265.5Z" style="fill:rgb(255,176,0);"/>
                </g>
                <g id="path12" transform="matrix(1,0,0,1,118.197,22.1552)">
                    <path d="M209,174.75C208.67,173.92 208.33,172.67 208,171L207.75,170.5C201.58,155.17 197.33,140.08 195,125.25C194.67,122.42 194.25,120.75 193.75,120.25C193.25,117.92 191.83,115.58 189.5,113.25L197.25,98.5C198.58,96.17 199.75,95 200.75,95C201.25,95 202.42,96.17 204.25,98.5L223.75,123.75C226.58,127.08 228,129.42 228,130.75C228,132.08 227.25,132.75 225.75,132.75C223.42,132.75 219.25,131.17 213.25,128C215.08,137.67 219.08,149.75 225.25,164.25C226.58,167.92 231.17,171.83 239,176C247,180.67 256.83,184.42 268.5,187.25C273.17,188.75 275.25,191.33 274.75,195L270.5,213C270,215 267.42,215 262.75,213C250.75,207.5 235.92,204.75 218.25,204.75C193.92,204.75 164.83,215.42 131,236.75C123.5,241.42 116.25,246.08 109.25,250.75L78.5,271.75C65.5,279.25 53.67,283 43,283C31.83,283 22,279 13.5,271C4.67,262.67 0.25,252.42 0.25,240.25C0.25,223.08 8.92,201 26.25,174C28.08,171.67 29.42,170.5 30.25,170.5C30.75,170.5 31,170.75 31,171.25C31,174.08 27.25,183.58 19.75,199.75C12.42,215.58 8.75,228.42 8.75,238.25C8.75,245.25 11.08,250.83 15.75,255C19.92,259.67 25.92,262 33.75,262C46.42,262 58.33,258.75 69.5,252.25C83.83,242.42 97.75,232.67 111.25,223C134.08,208 155.5,196.33 175.5,188C190.83,182 202.25,179 209.75,179C209.25,178 209,176.58 209,174.75Z" style="fill:rgb(255,176,0);"/>
                </g>
                <g id="path13" transform="matrix(1,0,0,1,118.197,22.1552)">
                    <path d="M278.25,251.25C278.25,250.92 279.08,249.83 280.75,248C289.25,238.83 293.5,232.67 293.5,229.5C293.5,226.67 292.17,225.25 289.5,225.25C288,225.25 286.71,225.58 285.63,226.25C284.54,226.92 283.92,227.33 283.75,227.5L283,227C283.17,226.83 283.33,226.08 283.5,224.75C284.83,218.42 288,215.25 293,215.25C297.17,215.25 299.25,217.83 299.25,223C299.25,226.83 297.67,231.25 294.5,236.25C291.33,241.25 287.17,245.58 282,249.25C280,250.58 278.75,251.25 278.25,251.25Z" style="fill:rgb(0,162,181);"/>
                </g>
                <g id="path14" transform="matrix(1,0,0,1,118.197,22.1552)">
                    <path d="M0,330.5C0,330.17 0.92,329 2.75,327C11.75,317 16.25,310.33 16.25,307C16.25,303.83 14.83,302.25 12,302.25C10.33,302.25 8.92,302.67 7.75,303.5C6.58,304.33 5.92,304.75 5.75,304.75C5.58,304.58 5.33,304.5 5,304.5C5.17,304.17 5.33,303.25 5.5,301.75C7,294.92 10.42,291.5 15.75,291.5C20.25,291.5 22.5,294.33 22.5,300C22.5,304.17 20.79,308.96 17.38,314.38C13.96,319.79 9.5,324.42 4,328.25C1.67,329.75 0.33,330.5 0,330.5Z" style="fill:rgb(0,162,181);"/>
                </g>
                <g id="path15" transform="matrix(1,0,0,1,118.197,22.1552)">
                    <path d="M104.75,65.75C105.58,62.08 107.17,58 109.5,53.5C154.83,36.33 201.42,18.92 249.25,1.25L251.5,0.75L251.88,0.75C251.96,0.75 252,0.92 252,1.25C252,1.58 251.83,2.17 251.5,3C249.83,7 248.63,9.33 247.88,10C247.13,10.67 224.67,19.25 180.5,35.75C135.33,52.75 110.08,62.75 104.75,65.75Z" style="fill:rgb(0,162,181);"/>
                </g>
                <g id="path16" transform="matrix(1,0,0,1,118.197,22.1552)">
                    <path d="M275.75,180.25C275.08,180.25 274.75,179.33 274.75,177.5C274.75,174.5 273.08,168.79 269.75,160.38C266.42,151.96 264.08,147.75 262.75,147.75C261.75,147.75 261.13,148.08 260.88,148.75C260.63,149.42 259.83,149.75 258.5,149.75C257,149.75 255.04,148.63 252.63,146.38C250.21,144.13 249,142.33 249,141C249,140.5 250,138.54 252,135.13C254,131.71 255.25,130 255.75,130C260.75,130 265.21,132.92 269.13,138.75C273.04,144.58 275.75,152.25 277.25,161.75L277.5,162.25L277.5,163.5L277.75,163.5C277.92,163.5 278,163.42 278,163.25C278,163.08 278.17,162.58 278.5,161.75C279.33,156.08 281.33,147.67 284.5,136.5C287.83,128.5 291.42,124.5 295.25,124.5C297.42,124.5 299.42,125.79 301.25,128.38C303.08,130.96 304,133 304,134.5C304,135.67 303.67,137.29 303,139.38C302.33,141.46 301.42,142.5 300.25,142.5C299.92,142.5 299,141.58 297.5,139.75C296,137.92 294.42,137 292.75,137C289.25,137 286,145.25 283,161.75C281.83,169.08 280.42,174.17 278.75,177C277.58,179.17 276.58,180.25 275.75,180.25Z" style="fill:rgb(0,162,181);"/>
                </g>
                <g id="path17" transform="matrix(1,0,0,1,118.197,22.1552)">
                    <path d="M161.5,472.25L161.5,472C161.5,471.83 162.17,470.83 163.5,469C169.83,460.67 173,455.17 173,452.5C173,449.83 171.83,448.5 169.5,448.5C168.17,448.5 166.92,449 165.75,450L164.25,451L163.75,450.75C163.92,450.42 164,449.75 164,448.75C164.67,442.75 167.42,439.75 172.25,439.75C175.42,439.75 177.17,441.83 177.5,446L177.5,447.25C177.5,450.25 176.5,453.75 174.5,457.75C172,462.42 168.67,466.5 164.5,470C163,471.33 162,472.08 161.5,472.25Z" style="fill:rgb(0,162,181);"/>
                </g>
                <g id="path18" transform="matrix(1,0,0,1,118.197,22.1552)">
                    <path d="M240.75,322.75L239.75,322.75C236.58,322.08 235,320.33 235,317.5C235,312.83 237.75,307.83 243.25,302.5C247.42,298.33 251.08,295.67 254.25,294.5L254.75,294.5C255.08,294.5 255.33,294.58 255.5,294.75C255.5,295.25 255.17,295.75 254.5,296.25C252,297.75 249.25,300.04 246.25,303.13C243.25,306.21 241.58,308.58 241.25,310.25C242.08,309.75 242.92,309.5 243.75,309.5L245.25,309.75C248.08,310.25 249.5,311.75 249.5,314.25C249.5,317.25 248.08,319.58 245.25,321.25C243.75,322.25 242.25,322.75 240.75,322.75Z" style="fill:rgb(0,162,181);"/>
                </g>
                <g id="path19" transform="matrix(1,0,0,1,118.197,22.1552)">
                    <path d="M244.5,105C240.5,105 238.5,102.83 238.5,98.5C238.5,94.5 240.25,89.92 243.75,84.75C247.25,79.58 250.42,76.17 253.25,74.5L254,74.25C254.17,74.25 254.29,74.33 254.38,74.5C254.46,74.67 254.5,74.83 254.5,75C254.5,75.33 254.25,75.75 253.75,76.25C251.58,78.25 249.33,81.04 247,84.63C244.67,88.21 243.5,90.92 243.5,92.75C244.5,91.75 245.75,91.25 247.25,91.25C250.75,91.25 252.5,92.75 252.5,95.75C252.5,98.58 251.63,100.83 249.88,102.5C248.13,104.17 246.33,105 244.5,105Z" style="fill:rgb(0,162,181);"/>
                </g>
                <g id="path20" transform="matrix(-0.902741,0.430184,-0.430184,-0.902741,378.28,662.974)">
                    <path d="M49,370.25L49,370C49,369.67 49.83,368.58 51.5,366.75C60.33,357.08 64.75,350.67 64.75,347.5C64.75,344.5 63.33,343 60.5,343C59,343 57.71,343.33 56.63,344C55.54,344.67 54.83,345.08 54.5,345.25L54,345L54.25,343.5C55.58,336.17 58.92,332.5 64.25,332.5C68.58,332.5 70.75,335.17 70.75,340.5C70.75,344.67 69.08,349.33 65.75,354.5C62.42,359.67 58.08,364.17 52.75,368C50.58,369.5 49.33,370.25 49,370.25Z" style="fill:rgb(0,162,181);"/>
                </g>
                <g id="path21" transform="matrix(1,0,0,1,118.197,22.1552)">
                    <path d="M277,23.25L277,23C277,22.83 277.5,22.17 278.5,21C284,15.17 286.75,11.25 286.75,9.25C286.75,7.42 285.92,6.5 284.25,6.5C283.25,6.5 282.25,6.83 281.25,7.5L280,7.75L280.25,6C281.25,2 283.33,0 286.5,0C289.17,0 290.5,1.67 290.5,5C290.5,7.5 289.46,10.33 287.38,13.5C285.29,16.67 282.58,19.42 279.25,21.75C277.92,22.75 277.17,23.25 277,23.25Z" style="fill:rgb(0,162,181);"/>
                </g>
                <g id="path22" transform="matrix(1,0,0,1,118.197,22.1552)">
                    <path d="M306.75,395.5C304.25,395.5 302.42,393.92 301.25,390.75C300.58,389.08 300.25,387.08 300.25,384.75C300.25,382.08 300.67,379.08 301.5,375.75C302.83,370.08 304.58,365.92 306.75,363.25L307.25,362.75C307.75,362.75 308,363 308,363.5L307.75,364.5C306.42,367.17 305.33,370.58 304.5,374.75C303.83,377.42 303.5,379.5 303.5,381C303.5,382.17 303.67,383.08 304,383.75C305.17,381.58 307,380.5 309.5,380.5C311.5,380.5 312.83,381.5 313.5,383.5C314,384.67 314.25,385.83 314.25,387C314.25,388.33 313.92,389.67 313.25,391C312.25,393 310.92,394.33 309.25,395L306.75,395.5Z" style="fill:rgb(0,162,181);"/>
                </g>
                <g id="path23" transform="matrix(1,0,0,1,118.197,22.1552)">
                    <path d="M295.5,352.25L295.25,352.25C295.25,351.92 295.67,350.75 296.5,348.75C299.67,340.58 301.25,334.92 301.25,331.75C301.25,330.92 301.17,330.25 301,329.75C300.33,328.08 299.33,327.25 298,327.25C296.17,327.25 294.67,328.08 293.5,329.75C292.83,330.58 292.42,331 292.25,331L291.75,331L291.25,326.25C291.25,322.08 292.92,319.42 296.25,318.25L298.25,317.75C300.58,317.75 302.42,319.42 303.75,322.75C304.42,324.42 304.75,326.33 304.75,328.5C304.75,335.33 302.42,342.25 297.75,349.25C296.58,351.08 295.83,352.08 295.5,352.25Z" style="fill:rgb(0,162,181);"/>
                </g>
                <g id="path24" transform="matrix(1,0,0,1,118.197,22.1552)">
                    <path d="M167.25,538C164.92,537.83 163.75,536.5 163.75,534C163.75,531.83 164.75,529.25 166.75,526.25C168.75,523.25 170.58,521.25 172.25,520.25L172.5,520.25L173,520.5L172.75,521.25C171.42,522.42 170.08,524.04 168.75,526.13C167.42,528.21 166.75,529.75 166.75,530.75C167.25,530.25 168,530 169,530C170.83,530 171.75,530.83 171.75,532.5C171.75,534.17 171.25,535.5 170.25,536.5C169.25,537.5 168.25,538 167.25,538Z" style="fill:rgb(0,162,181);"/>
                </g>
                <g id="path25" transform="matrix(1,0,0,1,118.197,22.1552)">
                    <path d="M253,516C253,515.67 253.75,514.67 255.25,513C262.58,505 266.25,499.67 266.25,497C266.25,494.5 265.08,493.25 262.75,493.25C261.42,493.25 260.29,493.54 259.38,494.13C258.46,494.71 257.92,495.08 257.75,495.25L257.25,495L257.5,493.75C258.5,487.58 261.25,484.5 265.75,484.5C269.42,484.5 271.25,486.75 271.25,491.25C271.25,494.58 269.88,498.46 267.13,502.88C264.38,507.29 260.75,511 256.25,514C254.42,515.33 253.33,516 253,516Z" style="fill:rgb(0,162,181);"/>
                </g>
                <g id="path26" transform="matrix(1,0,0,1,118.197,22.1552)">
                    <path d="M120.25,394.25C121.25,390.42 122.83,386.33 125,382C143.17,375.17 161.83,368.25 181,361.25C216.17,348.08 234.08,341.5 234.75,341.5C235.08,341.5 235.25,341.75 235.25,342.25L234.75,344C233.08,348 231.75,350.42 230.75,351.25C199.42,362.75 162.58,377.08 120.25,394.25Z" style="fill:rgb(0,162,181);"/>
                </g>
                <g id="path27" transform="matrix(1,0,0,1,118.197,22.1552)">
                    <path d="M158,160.5L157.5,160.5C141.5,156.67 130.17,152.83 123.5,149C118.17,145.83 115.5,141.33 115.5,135.5L115.75,132.5C117.42,135.33 121.17,138.5 127,142C129.33,143.33 135.58,145.75 145.75,149.25C154.75,152.42 160.25,154.25 162.25,154.75L162.5,153.75C162.5,150.92 159.67,147.92 154,144.75C149.5,143.08 143.42,140.5 135.75,137C130.75,134 128.25,131.33 128.25,129C128.25,127.33 129.92,125.33 133.25,123C141.25,118 149.58,115.5 158.25,115.5C161.92,115.5 164.67,116 166.5,117C168.33,118 169.25,119.17 169.25,120.5C169.25,121.5 168.83,122.42 168,123.25C165.67,125.58 164.17,126.75 163.5,126.75L163.25,126.75C163.25,125.75 162.33,124.33 160.5,122.5C159.67,121.83 157.75,121.5 154.75,121.5C147.58,121.5 141.67,122.42 137,124.25C135.83,124.75 135.25,125.25 135.25,125.75C135.25,126.75 137.17,128.33 141,130.5C143.83,132.17 147.5,133.83 152,135.5C156.5,137.17 159.25,138.25 160.25,138.75C165.42,141.58 168,145 168,149C168,151.83 166.42,154.67 163.25,157.5C160.92,159.5 159.17,160.5 158,160.5Z" style="fill:rgb(0,162,181);"/>
                </g>
                <g id="path28" transform="matrix(1,0,0,1,118.197,22.1552)">
                    <path d="M26.75,248.75L26.5,248.75C26.5,248.42 27.17,247.5 28.5,246C35.17,238.83 38.5,234 38.5,231.5C38.5,229.33 37.42,228.25 35.25,228.25C34.08,228.25 33.08,228.5 32.25,229C31.42,229.5 30.92,229.75 30.75,229.75L30.25,229.75L30.5,228.5C31.5,223 34.08,220.25 38.25,220.25C41.42,220.25 43,222.33 43,226.5C43,229.5 41.75,232.96 39.25,236.88C36.75,240.79 33.5,244.17 29.5,247C27.83,248.17 26.92,248.75 26.75,248.75Z" style="fill:rgb(0,162,181);"/>
                </g>
                <g id="path29" transform="matrix(1,0,0,1,118.197,22.1552)">
                    <path d="M131,459.75C130.33,459.58 130,458.67 130,457C130,454.33 128.42,449.04 125.25,441.13C122.08,433.21 119.92,429.25 118.75,429.25C117.75,429.25 117.13,429.54 116.88,430.13C116.63,430.71 115.92,431 114.75,431C113.25,431 111.38,429.96 109.13,427.88C106.88,425.79 105.75,424.17 105.75,423C105.75,422.33 106.71,420.42 108.63,417.25C110.54,414.08 111.75,412.5 112.25,412.5C116.92,412.5 121.08,415.25 124.75,420.75C128.42,426.25 130.92,433.42 132.25,442.25C132.42,443.25 132.54,443.79 132.63,443.88C132.71,443.96 132.83,444 133,444L133.75,442.25C134.42,436.92 136.17,429 139,418.5C142.17,411 145.58,407.25 149.25,407.25C151.25,407.25 153.13,408.46 154.88,410.88C156.63,413.29 157.5,415.17 157.5,416.5C157.5,417.67 157.25,419.08 156.75,420.75C155.92,423.08 155,424.25 154,424.25C153.67,424.25 152.79,423.38 151.38,421.63C149.96,419.88 148.5,419 147,419C143.67,419 140.58,426.83 137.75,442.5C136.58,449.17 135.25,453.92 133.75,456.75C132.75,458.75 131.83,459.75 131,459.75Z" style="fill:rgb(0,162,181);"/>
                </g>
                <g id="path30" transform="matrix(1,0,0,1,118.197,22.1552)">
                    <path d="M236.25,423.25C230.42,423.25 227.5,418.42 227.5,408.75C227.5,396.92 230.92,384.5 237.75,371.5C239.58,368.33 240.67,366.75 241,366.75C241,367.42 240.5,369.25 239.5,372.25C235.17,385.75 233,395.25 233,400.75C233,408.08 234.92,411.75 238.75,411.75C241.08,411.75 243.75,408.92 246.75,403.25L247.75,402C247.92,402 248,402.5 248,403.5C245.67,416.67 241.75,423.25 236.25,423.25Z" style="fill:rgb(0,162,181);"/>
                </g>
                <g id="path31" transform="matrix(1,0,0,1,118.197,22.1552)">
                    <path d="M187.75,546.25L187.5,546C187.5,545.83 188.25,544.92 189.75,543.25C197.08,535.25 200.75,529.92 200.75,527.25C200.75,524.75 199.58,523.5 197.25,523.5C195.92,523.5 194.79,523.79 193.88,524.38C192.96,524.96 192.42,525.25 192.25,525.25L191.75,525L192,523.75C193,517.75 195.83,514.75 200.5,514.75C204,514.75 205.75,517 205.75,521.5C205.75,524.83 204.38,528.67 201.63,533C198.88,537.33 195.25,541.08 190.75,544.25C189.08,545.58 188.08,546.25 187.75,546.25Z" style="fill:rgb(0,162,181);"/>
                </g>
                <g id="path32" transform="matrix(1,0,0,1,118.197,22.1552)">
                    <path d="M313.5,557.5L313.25,557.25C313.25,556.92 314.17,555.75 316,553.75C325,544.08 329.5,537.58 329.5,534.25C329.5,531.25 328.08,529.75 325.25,529.75C323.58,529.75 322.21,530.08 321.13,530.75C320.04,531.42 319.33,531.83 319,532L318.5,531.75L318.75,530C320.08,522.67 323.5,519 329,519C333.33,519 335.5,521.75 335.5,527.25C335.5,531.42 333.83,536.13 330.5,541.38C327.17,546.63 322.75,551.17 317.25,555C315.08,556.67 313.83,557.5 313.5,557.5Z" style="fill:rgb(0,162,181);"/>
                </g>
                <g id="path33" transform="matrix(1,0,0,1,118.197,22.1552)">
                    <path d="M365,545.5C360,545.5 357.5,541.25 357.5,532.75C357.5,522.58 360.5,511.83 366.5,500.5C368,497.67 368.92,496.25 369.25,496.25C369.25,496.92 368.83,498.5 368,501C364.17,512.83 362.25,521.08 362.25,525.75C362.25,532.25 363.92,535.5 367.25,535.5C369.25,535.5 371.58,533 374.25,528C374.42,527.5 374.67,527.17 375,527L375.5,527.5L375.25,528.25C373.25,539.75 369.83,545.5 365,545.5Z" style="fill:rgb(0,162,181);"/>
                </g>
                <g id="path331" serif:id="path33" transform="matrix(0.724165,0.283767,-0.283767,0.724165,302.098,-6.64195)">
                    <path d="M365,545.5C360,545.5 357.5,541.25 357.5,532.75C357.5,522.58 360.5,511.83 366.5,500.5C368,497.67 368.92,496.25 369.25,496.25C369.25,496.92 368.83,498.5 368,501C364.17,512.83 362.25,521.08 362.25,525.75C362.25,532.25 363.92,535.5 367.25,535.5C369.25,535.5 371.58,533 374.25,528C374.42,527.5 374.67,527.17 375,527L375.5,527.5L375.25,528.25C373.25,539.75 369.83,545.5 365,545.5Z" style="fill:rgb(0,162,181);"/>
                </g>
                <g id="path34" transform="matrix(1,0,0,1,118.197,22.1552)">
                    <path d="M413.75,524.5C413.25,524.5 413,523.83 413,522.5C413,520.33 411.75,516.13 409.25,509.88C406.75,503.63 405,500.5 404,500.5C403.17,500.5 402.67,500.71 402.5,501.13C402.33,501.54 401.75,501.75 400.75,501.75C399.58,501.75 398.13,500.92 396.38,499.25C394.63,497.58 393.75,496.25 393.75,495.25C393.75,494.92 394.5,493.46 396,490.88C397.5,488.29 398.42,487 398.75,487C402.42,487 405.71,489.21 408.63,493.63C411.54,498.04 413.58,503.75 414.75,510.75C414.92,511.42 415,511.83 415,512L415.25,512C415.42,511.83 415.58,511.42 415.75,510.75C416.42,506.58 417.92,500.33 420.25,492C422.58,486 425.25,483 428.25,483C429.75,483 431.21,483.96 432.63,485.88C434.04,487.79 434.75,489.25 434.75,490.25C434.75,491.08 434.5,492.33 434,494C433.5,495.67 432.83,496.5 432,496.5C431.67,496.5 430.96,495.79 429.88,494.38C428.79,492.96 427.67,492.25 426.5,492.25C423.83,492.25 421.42,498.42 419.25,510.75C417.58,519.92 415.75,524.5 413.75,524.5Z" style="fill:rgb(0,162,181);"/>
                </g>
                <g id="path35" transform="matrix(1,0,0,1,118.197,28.1552)">
                    <path d="M457,435.75C457,435.42 457.67,434.5 459,433C466.33,425 470,419.67 470,417C470,414.33 468.83,413 466.5,413C465.33,413 464.29,413.33 463.38,414C462.46,414.67 461.83,415 461.5,415L461,414.75L461.25,413.25C462.42,407.42 465.25,404.5 469.75,404.5C473.42,404.5 475.25,406.75 475.25,411.25C475.25,414.58 473.83,418.42 471,422.75C468.17,427.08 464.5,430.83 460,434C458.33,435.17 457.33,435.75 457,435.75Z" style="fill:rgb(0,162,181);"/>
                </g>
                <g id="path36" transform="matrix(1,0,0,1,118.197,22.1552)">
                    <path d="M445.75,87.25C442.42,87.25 440.75,85.42 440.75,81.75C440.75,78.58 442.33,74.75 445.5,70.25C448.17,66.25 450.67,63.5 453,62L453.5,62C453.83,62 454,62.17 454,62.5C454,62.83 453.83,63.17 453.5,63.5C451.67,65.17 449.79,67.46 447.88,70.38C445.96,73.29 445,75.5 445,77C445.83,76.33 446.92,76 448.25,76C451.08,76 452.5,77.25 452.5,79.75C452.5,81.92 451.75,83.71 450.25,85.13C448.75,86.54 447.25,87.25 445.75,87.25Z" style="fill:rgb(0,162,181);"/>
                </g>
                <g id="path37" transform="matrix(1,0,0,1,120.197,26.1552)">
                    <path d="M462.5,383.25C458.33,383.25 456.25,379.67 456.25,372.5C456.25,363.83 458.75,354.75 463.75,345.25L466,341.5L466.25,341.75C466.25,342.25 465.83,343.58 465,345.75C461.83,355.75 460.25,362.75 460.25,366.75C460.25,372.08 461.67,374.75 464.5,374.75C466.17,374.75 468.08,372.67 470.25,368.5L471.25,367.5L471.25,368.75C469.42,378.42 466.5,383.25 462.5,383.25Z" style="fill:rgb(0,162,181);"/>
                </g>
                <g id="path38" transform="matrix(1,0,0,1,118.197,22.1552)">
                    <path d="M443.5,224C437.83,224 435,218.67 435,208C435,205 435.33,201.75 436,198.25C436.5,195.75 438.67,188.5 442.5,176.5C445,169.33 446.25,160.83 446.25,151L446,143.25C445.5,129.92 439.58,117.58 428.25,106.25C427.75,105.75 427.5,105.25 427.5,104.75C427.5,104.25 429,101.33 432,96C432.33,95.67 432.58,95.5 432.75,95.5C433.08,95.5 433.42,95.67 433.75,96C440.75,102.83 445.42,109.08 447.75,114.75C449.58,119.58 450.83,127.33 451.5,138C451.83,140.5 452,142.83 452,145C452,153.33 450,163.58 446,175.75C442,187.92 440,196.5 440,201.5C440,208.67 442.08,212.25 446.25,212.25C448.58,212.25 451.25,209.42 454.25,203.75C454.75,202.75 455.17,202.25 455.5,202.25L455.5,204C453,217.33 449,224 443.5,224Z" style="fill:rgb(0,162,181);"/>
                </g>
                <g id="path1" transform="matrix(1,0,0,1,7,60)">
                    <path d="M467.947,306.905C462.777,306.905 460.197,304.405 460.197,299.405C460.197,295.905 462.277,290.655 466.447,283.655C470.617,276.655 474.117,273.155 476.947,273.155C479.447,273.155 481.657,274.285 483.577,276.535C485.487,278.785 486.447,281.575 486.447,284.905C486.447,289.905 484.657,294.825 481.077,299.655C477.487,304.485 473.117,306.905 467.947,306.905ZM471.697,296.655C478.527,296.655 481.947,294.655 481.947,290.655C481.777,285.825 478.527,283.405 472.197,283.405C471.197,283.405 469.657,284.905 467.577,287.905C465.487,290.905 464.447,292.985 464.447,294.155C465.117,295.825 467.527,296.655 471.697,296.655Z" style="fill:rgb(0,162,181);"/>
                </g>
                <g id="path40" transform="matrix(1,0,0,1,115.197,15.1552)">
                    <path d="M344.75,386.25C345.75,382.25 347.33,378 349.5,373.5C367.17,367.33 386.42,360.5 407.25,353C408.25,352.67 409,352.5 409.5,352.5C409.83,352.5 410,352.67 410,353C410,353.5 409.83,354.08 409.5,354.75C407.83,358.75 406.5,361.17 405.5,362C388,368.17 367.75,376.25 344.75,386.25Z" style="fill:rgb(0,162,181);"/>
                </g>
                <g id="path41" transform="matrix(1,0,0,1,118.197,22.1552)">
                    <path d="M355.25,433.75C355.08,433.75 354.92,433.5 354.75,433C355.08,431 355.42,429.13 355.75,427.38C356.08,425.63 358.92,422.75 364.25,418.75C357.58,416.42 354.25,413.42 354.25,409.75C354.25,405.75 356,401.67 359.5,397.5C366.17,389.5 371.75,385.5 376.25,385.5C380.25,385.5 382.25,387.75 382.25,392.25C382.25,394.75 381.17,397.75 379,401.25C378.83,401.58 378.58,401.75 378.25,401.75C378.08,401.75 377.83,401.5 377.5,401C376.17,398.33 374.5,397 372.5,397C370.83,397 368.92,397.75 366.75,399.25C364.58,400.75 363.5,402.17 363.5,403.5C363.5,404.83 364.83,406.21 367.5,407.63C370.17,409.04 372.33,409.75 374,409.75C375.5,409.75 378.17,408.67 382,406.5C383.83,405.17 385.67,404 387.5,403L390,401.25C392.17,400.25 393.42,399.75 393.75,399.75C394.08,399.92 394.25,400.25 394.25,400.75L393.75,402.75C392.92,406.58 391.83,409.08 390.5,410.25C385.5,413.25 374.58,420.5 357.75,432L355.25,433.75Z" style="fill:rgb(0,162,181);"/>
                </g>
                <g id="path2" transform="matrix(1,0,0,1,6,68)">
                    <path d="M496.197,266.655C495.867,266.655 495.697,266.575 495.697,266.405C495.697,265.575 499.027,263.235 505.697,259.405L531.947,243.905C544.777,236.075 554.367,228.825 560.697,222.155C552.367,217.825 548.197,213.235 548.197,208.405C548.197,202.575 550.867,197.235 556.197,192.405C560.367,188.575 563.947,186.655 566.947,186.655C571.617,186.655 573.947,189.985 573.947,196.655C573.947,201.485 572.947,206.905 570.947,212.905C575.277,215.405 577.947,217.485 578.947,219.155C578.947,221.485 577.027,225.405 573.197,230.905C572.197,229.235 569.617,227.155 565.447,224.655C560.777,231.155 554.777,237.075 547.447,242.405C539.277,248.575 531.697,253.155 524.697,256.155C523.197,256.985 515.197,260.075 500.697,265.405C498.527,266.235 497.027,266.655 496.197,266.655ZM565.947,210.405C566.447,208.735 566.697,207.075 566.697,205.405C566.697,200.575 565.277,198.155 562.447,198.155C561.447,198.155 560.077,198.615 558.327,199.535C556.577,200.445 555.697,201.405 555.697,202.405C555.697,204.405 559.117,207.075 565.947,210.405Z" style="fill:rgb(0,162,181);"/>
                </g>
                <g id="path43" transform="matrix(1,0,0,1,118.197,22.1552)">
                    <path d="M143.25,294L142.5,293.75C135.67,288.42 128.67,283.5 121.5,279L121.25,278.5L130,259.5C130.67,258.5 131.25,258 131.75,258C132.75,258 136.13,259.96 141.88,263.88C147.63,267.79 151.42,270.58 153.25,272.25L160.25,258C160.75,257 161.33,256.5 162,256.5C163,256.5 166.92,258.83 173.75,263.5C180.58,268.17 184,270.92 184,271.75C184,274.92 181,281.42 175,291.25C174.5,291.92 174,292.25 173.5,292.25C173.17,292.25 172.92,292.17 172.75,292C166.75,287.67 159.92,283 152.25,278C149.75,283.83 147.25,288.75 144.75,292.75C144.25,293.58 143.75,294 143.25,294Z" style="fill:rgb(0,162,181);"/>
                </g>
                <g id="path44" transform="matrix(1,0,0,1,123.197,20.1552)">
                    <path d="M414.25,349.75L413.5,349.5C406.67,344.33 399.67,339.42 392.5,334.75L392.25,334.25C392.25,333.92 395.25,327.58 401.25,315.25C401.75,314.25 402.33,313.75 403,313.75C403.83,313.75 407.17,315.71 413,319.63C418.83,323.54 422.58,326.33 424.25,328L431.25,313.75C431.92,312.75 432.5,312.25 433,312.25C434,312.25 437.96,314.58 444.88,319.25C451.79,323.92 455.25,326.67 455.25,327.5C455.25,330.67 452.17,337.17 446,347C445.5,347.67 445.08,348 444.75,348L443.75,347.75C437.75,343.42 431,338.75 423.5,333.75C418.67,344.42 415.58,349.75 414.25,349.75Z" style="fill:rgb(0,162,181);"/>
                </g>
                <g id="path45" transform="matrix(1,0,0,1,118.197,22.1552)">
                    <path d="M196.25,434L195.5,433.75C188.67,428.58 181.67,423.67 174.5,419L174.25,418.5L183,399.5C183.67,398.5 184.25,398 184.75,398C185.75,398 189.71,400.38 196.63,405.13C203.54,409.88 207,412.58 207,413.25C207,416.42 203.92,422.92 197.75,432.75C197.25,433.58 196.75,434 196.25,434Z" style="fill:rgb(0,162,181);"/>
                </g>
                <g id="path46" transform="matrix(1,0,0,1,118.197,22.1552)">
                    <path d="M406.5,293.5C406,293.33 405.75,292.08 405.75,289.75C405.75,287.92 405.92,285.42 406.25,282.25C407.25,274.92 407.75,266.42 407.75,256.75C407.75,247.92 405.92,217.83 402.25,166.5C398.58,115.17 396.75,85.75 396.75,78.25C396.75,69.42 395.42,62.17 392.75,56.5C392.75,53.33 395.25,45.83 400.25,34C400.92,32.5 401.5,31.75 402,31.75C403,31.75 406.92,41.08 413.75,59.75C421.08,78.58 424.75,89.42 424.75,92.25C424.75,93.58 424.33,94.25 423.5,94.25C421.83,94.25 418.33,91.17 413,85C412.67,84.67 412.42,84.5 412.25,84.5C411.92,84.5 411.75,85.25 411.75,86.75C411.75,87.58 413.33,109.67 416.5,153C419.67,196.33 421.25,221.5 421.25,228.5C421.25,249.67 418,268.33 411.5,284.5C409,290.33 407.33,293.33 406.5,293.5Z" style="fill:rgb(255,176,0);"/>
                </g>
                <g id="path47" transform="matrix(1,0,0,1,118.197,22.1552)">
                    <path d="M147.5,512C113.33,512 89.75,495.25 76.75,461.75C74.25,455.25 73,446.92 73,436.75C73,419.75 75.83,404 81.5,389.5C82.33,387.17 83.25,386 84.25,386C84.75,386 85,386.58 85,387.75L84.75,390.5C80.75,407 78.75,417.92 78.75,423.25C78.75,437.08 83.33,449.83 92.5,461.5C105.17,477 123.42,484.75 147.25,484.75C168.08,484.75 190.25,479.83 213.75,470C232.58,462.17 249.58,452.33 264.75,440.5C278.25,430 285,422.42 285,417.75C285,417.08 282.25,411.17 276.75,400C269.92,387 264.92,374.33 261.75,362C260.42,357.83 258.88,355 257.13,353.5C255.38,352 254.5,350.42 254.5,348.75C254.5,347.58 255.75,340.92 258.25,328.75C258.75,326.58 259.33,325.5 260,325.5C260.83,325.5 261.75,326 262.75,327C266.25,330.83 273.67,338.42 285,349.75C286.83,351.58 287.75,353 287.75,354C287.75,355.33 286.67,356 284.5,356C282.17,356 278.67,355.25 274,353.75C274.33,355.25 278.08,363.25 285.25,377.75C291.08,389.58 294,399.75 294,408.25C294,425.25 290.25,438.08 282.75,446.75C270.58,460.75 252.92,474.33 229.75,487.5C200.25,503.83 172.83,512 147.5,512Z" style="fill:rgb(255,97,6);"/>
                </g>
                <g id="path0" transform="matrix(1,0,0,1,6,68)">
                    <path d="M546.197,396.405C553.527,403.735 562.367,407.405 572.697,407.405C581.527,407.405 590.117,404.155 598.447,397.655C600.777,395.325 601.947,387.905 601.947,375.405C601.947,367.905 598.697,319.735 592.197,230.905C585.697,141.905 582.447,92.735 582.447,83.405C582.447,74.575 581.027,67.405 578.197,61.905C578.197,58.575 580.777,51.075 585.947,39.405C586.447,38.075 586.867,37.405 587.197,37.405C588.197,37.405 588.947,38.075 589.447,39.405C590.777,42.735 594.277,51.155 599.947,64.655C604.947,79.485 608.197,88.575 609.697,91.905C610.197,94.735 610.447,96.575 610.447,97.405C610.447,101.575 606.697,99.235 599.197,90.405C598.197,89.075 597.697,89.575 597.697,91.905C597.697,92.405 600.527,133.825 606.197,216.155C612.197,298.485 615.197,344.325 615.197,353.655C615.197,379.825 610.527,400.575 601.197,415.905C593.367,428.405 583.867,434.655 572.697,434.655C562.867,434.655 552.617,430.235 541.947,421.405C536.277,416.735 531.867,411.655 528.697,406.155L498.697,419.405C484.697,424.905 474.197,429.325 467.197,432.655C453.697,439.155 444.367,444.485 439.197,448.655C429.867,455.655 416.367,469.405 398.697,489.905C388.027,502.405 377.367,508.655 366.697,508.655C357.367,508.655 349.447,504.485 342.947,496.155C335.947,487.825 332.447,477.575 332.447,465.405C332.447,448.735 339.197,426.905 352.697,399.905C354.027,397.075 355.197,395.655 356.197,395.655C356.697,395.655 356.947,395.905 356.947,396.405C356.947,399.075 353.867,408.575 347.697,424.905C341.697,441.235 338.697,454.075 338.697,463.405C338.697,470.405 340.367,475.985 343.697,480.155C347.367,484.825 352.447,487.155 358.947,487.155C370.117,487.155 381.277,481.575 392.447,470.405C396.617,465.235 400.777,460.325 404.947,455.655L414.947,444.405C424.117,433.735 436.447,424.235 451.947,415.905C460.777,410.735 476.367,403.485 498.697,394.155L520.947,385.155C517.777,376.325 516.197,367.485 516.197,358.655C516.197,345.155 518.277,334.235 522.447,325.905C526.617,317.405 531.947,313.155 538.447,313.155C543.947,313.155 549.527,318.075 555.197,327.905C559.867,336.735 562.197,344.655 562.197,351.655C562.197,369.825 556.867,384.735 546.197,396.405ZM532.697,379.655C536.527,377.985 540.947,375.405 545.947,371.905C551.947,367.905 554.947,365.075 554.947,363.405C554.947,360.405 552.487,355.655 547.577,349.155C542.657,342.655 538.367,339.405 534.697,339.405C531.867,339.405 529.117,341.115 526.447,344.535C523.777,347.945 522.447,351.235 522.447,354.405C522.447,357.075 523.867,361.655 526.697,368.155C529.367,373.985 531.367,377.825 532.697,379.655Z" style="fill:rgb(255,97,6);"/>
                </g>
                <g id="path49" transform="matrix(1,0,0,1,118.197,22.1552)">
                    <path d="M527.25,405.75C526.58,405.75 526.25,404.67 526.25,402.5C526.25,400.67 526.5,398 527,394.5C527.83,387.33 528.25,378.83 528.25,369C528.25,360.33 526.42,330.33 522.75,279C519.08,227.67 517.25,198.17 517.25,190.5C517.25,181.83 515.92,174.67 513.25,169C513.25,165.83 515.75,158.25 520.75,146.25C521.42,144.92 522.08,144.25 522.75,144.25C523.08,144.25 523.67,145 524.5,146.5C525.83,149.67 529.21,158.38 534.63,172.63C540.04,186.88 543.25,195.67 544.25,199C544.92,201.5 545.25,203.42 545.25,204.75C545.25,205.92 544.92,206.5 544.25,206.5C542.58,206.5 539.08,203.42 533.75,197.25L533,196.75C532.5,196.75 532.25,197.58 532.25,199.25C532.25,199.92 533.83,221.96 537,265.38C540.17,308.79 541.75,333.92 541.75,340.75C541.75,362.08 538.58,380.75 532.25,396.75C529.92,402.75 528.25,405.75 527.25,405.75Z" style="fill:rgb(255,97,6);"/>
                </g>
            </g>
        </g>
    </g>
</svg>
